# xmcd
# 
# Track frame offsets:
#     150
#     15777
#     38467
#     54067
#     76365
#     96072
#     111275
#     129342
#     156262
#     173397
# 
# Disc length: 2559
# 
# Revision: 5
# Processed by: cddbd v1.5.2PL0 Copyright (c) Steve Scherf et al.
# Submitted via: BonkEnc v1.0.8
# 
DISCID=5d09fd0a
DTITLE=Stevie Wonder - Fulfillingness' First Finale
DYEAR=1974
DGENRE=Soul
TTITLE0=Smile Please
TTITLE1=Heaven Is 10 Zillion Light Years Away
TTITLE2=Too Shy To Say
TTITLE3=Boogie On Reggae Woman
TTITLE4=Creepin'
TTITLE5=You Haven't Done Nothin'
TTITLE6=It Ain't No Use
TTITLE7=They Won't Go When I Go
TTITLE8=Bird Of Beauty
TTITLE9=Please Don't Go
EXTD=
EXTT0=
EXTT1=
EXTT2=
EXTT3=
EXTT4=
EXTT5=
EXTT6=
EXTT7=
EXTT8=
EXTT9=
PLAYORDER=
